<svg xmlns="http://www.w3.org/2000/svg" width="89" height="43" viewBox="0 0 89 43" fill="none"><path d="M27.5 41C38.8218 41 48 31.8218 48 20.5C48 9.17816 38.8218 0 27.5 0C16.1782 0 7 9.17816 7 20.5C7 31.8218 16.1782 41 27.5 41Z" fill="black"></path><path d="M10.3 12H17.2L27.5 41H20.9L19 35H8.3L6.3 41H0L10.3 12ZM9.9 30H17.3L13.7 18.6L9.9 30Z" fill="white"></path><path d="M35.7969 27.2812V40H30.5312V23.0938H35.4531L35.7969 27.2812ZM40.7969 22.9688L40.7031 27.8594C40.4948 27.8385 40.2135 27.8125 39.8594 27.7812C39.5052 27.75 39.2083 27.7344 38.9688 27.7344C38.3542 27.7344 37.8229 27.8073 37.375 27.9531C36.9375 28.0885 36.5729 28.2969 36.2812 28.5781C36 28.849 35.7917 29.1927 35.6562 29.6094C35.5312 30.026 35.474 30.5104 35.4844 31.0625L34.5312 30.4375C34.5312 29.3021 34.6406 28.2708 34.8594 27.3438C35.0885 26.4062 35.4115 25.599 35.8281 24.9219C36.2448 24.2344 36.75 23.7083 37.3438 23.3438C37.9375 22.9688 38.6042 22.7812 39.3438 22.7812C39.6042 22.7812 39.8594 22.7969 40.1094 22.8281C40.3698 22.8594 40.599 22.9062 40.7969 22.9688ZM52.2969 23.0938V26.75H42.1094V23.0938H52.2969ZM44.25 18.8906H49.5156V34.4844C49.5156 34.9323 49.5677 35.2812 49.6719 35.5312C49.776 35.7708 49.9531 35.9427 50.2031 36.0469C50.4635 36.1406 50.8073 36.1875 51.2344 36.1875C51.5365 36.1875 51.7865 36.1823 51.9844 36.1719C52.1823 36.151 52.3698 36.125 52.5469 36.0938V39.8594C52.099 40.0052 51.6302 40.1146 51.1406 40.1875C50.651 40.2708 50.1302 40.3125 49.5781 40.3125C48.4531 40.3125 47.4896 40.1354 46.6875 39.7812C45.8958 39.4271 45.2917 38.8698 44.875 38.1094C44.4583 37.349 44.25 36.3594 44.25 35.1406V18.8906ZM53.2656 31.7188V31.3906C53.2656 30.151 53.4427 29.0104 53.7969 27.9688C54.151 26.9167 54.6719 26.0052 55.3594 25.2344C56.0469 24.4635 56.8958 23.8646 57.9062 23.4375C58.9167 23 60.0833 22.7812 61.4062 22.7812C62.7396 22.7812 63.9115 23 64.9219 23.4375C65.9427 23.8646 66.7969 24.4635 67.4844 25.2344C68.1719 26.0052 68.6927 26.9167 69.0469 27.9688C69.401 29.0104 69.5781 30.151 69.5781 31.3906V31.7188C69.5781 32.9479 69.401 34.0885 69.0469 35.1406C68.6927 36.1823 68.1719 37.0938 67.4844 37.875C66.7969 38.6458 65.9479 39.2448 64.9375 39.6719C63.9271 40.099 62.7604 40.3125 61.4375 40.3125C60.1146 40.3125 58.9427 40.099 57.9219 39.6719C56.901 39.2448 56.0469 38.6458 55.3594 37.875C54.6719 37.0938 54.151 36.1823 53.7969 35.1406C53.4427 34.0885 53.2656 32.9479 53.2656 31.7188ZM58.5312 31.3906V31.7188C58.5312 32.3542 58.5781 32.9479 58.6719 33.5C58.7656 34.0521 58.9219 34.5365 59.1406 34.9531C59.3594 35.3594 59.6562 35.6771 60.0312 35.9062C60.4062 36.1354 60.875 36.25 61.4375 36.25C61.9896 36.25 62.4479 36.1354 62.8125 35.9062C63.1875 35.6771 63.4844 35.3594 63.7031 34.9531C63.9219 34.5365 64.0781 34.0521 64.1719 33.5C64.2656 32.9479 64.3125 32.3542 64.3125 31.7188V31.3906C64.3125 30.776 64.2656 30.1979 64.1719 29.6562C64.0781 29.1042 63.9219 28.6198 63.7031 28.2031C63.4844 27.776 63.1875 27.4427 62.8125 27.2031C62.4375 26.9635 61.9688 26.8438 61.4062 26.8438C60.8542 26.8438 60.3906 26.9635 60.0156 27.2031C59.651 27.4427 59.3594 27.776 59.1406 28.2031C58.9219 28.6198 58.7656 29.1042 58.6719 29.6562C58.5781 30.1979 58.5312 30.776 58.5312 31.3906ZM77.0938 26.7031V40H71.8281V23.0938H76.7656L77.0938 26.7031ZM76.4688 30.9688L75.2344 31C75.2344 29.7083 75.3906 28.5573 75.7031 27.5469C76.0156 26.526 76.4583 25.6615 77.0312 24.9531C77.6042 24.2448 78.2865 23.7083 79.0781 23.3438C79.8802 22.9688 80.7708 22.7812 81.75 22.7812C82.5312 22.7812 83.2448 22.8958 83.8906 23.125C84.5469 23.3542 85.1094 23.724 85.5781 24.2344C86.0573 24.7448 86.4219 25.4219 86.6719 26.2656C86.9323 27.099 87.0625 28.1302 87.0625 29.3594V40H81.7656V29.3438C81.7656 28.6667 81.6719 28.151 81.4844 27.7969C81.2969 27.4323 81.026 27.1823 80.6719 27.0469C80.3177 26.9115 79.8854 26.8438 79.375 26.8438C78.8333 26.8438 78.375 26.9479 78 27.1562C77.625 27.3646 77.3229 27.6562 77.0938 28.0312C76.875 28.3958 76.7135 28.8281 76.6094 29.3281C76.5156 29.8281 76.4688 30.375 76.4688 30.9688Z" fill="white"></path></svg>